# xmcd CD database file
#
# Track frame offsets:
#	150
#	26834
#	50766
#	70909
#	92299
#	107445
#	127623
#	156000
#	177276
#	200762
#	222716
#	241640
#	266765
#	283057
#
# Disc length: 4102 seconds
#
# Revision: 0
# Processed by: cddbd v1.5.2PL0 Copyright (c) Steve Scherf et al.
# Submitted via: CDex 1.51
#
DISCID=c610040e
DTITLE=Keith Urban - Love, Pain and the whole crazy thing
DYEAR=2006
DGENRE=Country
TTITLE0=Once In a Lifetime
TTITLE1=Shine
TTITLE2=I Told You So
TTITLE3=I Can't Stop Loving You
TTITLE4=Won't Let You Down
TTITLE5=Faster Car
TTITLE6=Stupid Boy
TTITLE7=Used to the Pain
TTITLE8=Raise the Barn
TTITLE9=God Made Woman
TTITLE10=Tu Compania
TTITLE11=Everybody
TTITLE12=Got It Right This Time
TTITLE13=Slow Turning (Bonus Track)
EXTD=YEAR: 2006
EXTT0=
EXTT1=
EXTT2=
EXTT3=
EXTT4=
EXTT5=
EXTT6=
EXTT7=
EXTT8=
EXTT9=
EXTT10=
EXTT11=
EXTT12=
EXTT13=
PLAYORDER=
